# xmcd
#
# Track frame offsets: 
#        150
#        17405
#        32847
#        51570
#        69642
#        85237
#        101385
#        119180
#        136992
#        152880
#        169684
#        185145
#
# Disc length: 2697 seconds
#
# Revision: 0
# Processed by: cddbd v1.5.1PL2 Copyright (c) Steve Scherf et al.
# Submitted via: ExactAudioCopy v0.95b4
#
DISCID=a90a870c
DTITLE=สำราญ  บุญลาภ - จดหมายจากบ้านนอก
DYEAR=2001
DGENRE=Country
TTITLE0=จดหมายจากบ้านนอก
TTITLE1=แบกช้ำตามรัก
TTITLE2=แม่มูลยังคอย
TTITLE3=แอบรักนักร้อง
TTITLE4=หัวลำโพงถึงหมอชิต
TTITLE5=น้ำตาชาย
TTITLE6=นครพนม
TTITLE7=ข้าวเหนียวถูกน้ำ
TTITLE8=รักน้องคนเดียว
TTITLE9=ไปเช้ากลับค่ำ
TTITLE10=แบกช้ำตามรัก
TTITLE11=จดหมายจากบ้านนอก
EXTD=
EXTT0=
EXTT1=
EXTT2=
EXTT3=
EXTT4=
EXTT5=
EXTT6=
EXTT7=
EXTT8=
EXTT9=
EXTT10=
EXTT11=
PLAYORDER=
